<?xml version="1.0" encoding="UTF-8" standalone="no"?>
<!DOCTYPE svg PUBLIC "-//W3C//DTD SVG 1.1//EN"
 "http://www.w3.org/Graphics/SVG/1.1/DTD/svg11.dtd">
<!-- Generated by graphviz version 2.38.0 (20140413.2041)
 -->
<!-- Title: Factor Pages: 1 -->
<svg width="258pt" height="1440pt"
 viewBox="0.00 0.00 258.49 1440.00" xmlns="http://www.w3.org/2000/svg" xmlns:xlink="http://www.w3.org/1999/xlink">
<g id="graph0" class="graph" transform="scale(0.744571 0.744571) rotate(0) translate(4 1930)">
<title>Factor</title>
<polygon fill="white" stroke="none" points="-4,4 -4,-1930 343.17,-1930 343.17,4 -4,4"/>
<!-- V1 -->
<g id="node1" class="node"><title>V1</title>
<polygon fill="none" stroke="black" points="144,-846 0,-846 0,-810 144,-810 144,-846"/>
<text text-anchor="middle" x="72" y="-823.8" font-family="Helvetica,sans-Serif" font-size="14.00">Q1</text>
</g>
<!-- V2 -->
<g id="node2" class="node"><title>V2</title>
<polygon fill="none" stroke="black" points="144,-1548 0,-1548 0,-1512 144,-1512 144,-1548"/>
<text text-anchor="middle" x="72" y="-1525.8" font-family="Helvetica,sans-Serif" font-size="14.00">Q2</text>
</g>
<!-- V3 -->
<g id="node3" class="node"><title>V3</title>
<polygon fill="none" stroke="black" points="144,-144 0,-144 0,-108 144,-108 144,-144"/>
<text text-anchor="middle" x="72" y="-121.8" font-family="Helvetica,sans-Serif" font-size="14.00">Q3</text>
</g>
<!-- V4 -->
<g id="node4" class="node"><title>V4</title>
<polygon fill="none" stroke="black" points="144,-522 0,-522 0,-486 144,-486 144,-522"/>
<text text-anchor="middle" x="72" y="-499.8" font-family="Helvetica,sans-Serif" font-size="14.00">Q4</text>
</g>
<!-- V5 -->
<g id="node5" class="node"><title>V5</title>
<polygon fill="none" stroke="black" points="144,-468 0,-468 0,-432 144,-432 144,-468"/>
<text text-anchor="middle" x="72" y="-445.8" font-family="Helvetica,sans-Serif" font-size="14.00">Q5</text>
</g>
<!-- V6 -->
<g id="node6" class="node"><title>V6</title>
<polygon fill="none" stroke="black" points="144,-90 0,-90 0,-54 144,-54 144,-90"/>
<text text-anchor="middle" x="72" y="-67.8" font-family="Helvetica,sans-Serif" font-size="14.00">Q6</text>
</g>
<!-- V7 -->
<g id="node7" class="node"><title>V7</title>
<polygon fill="none" stroke="black" points="144,-1278 0,-1278 0,-1242 144,-1242 144,-1278"/>
<text text-anchor="middle" x="72" y="-1255.8" font-family="Helvetica,sans-Serif" font-size="14.00">Q7</text>
</g>
<!-- V8 -->
<g id="node8" class="node"><title>V8</title>
<polygon fill="none" stroke="black" points="144,-1764 0,-1764 0,-1728 144,-1728 144,-1764"/>
<text text-anchor="middle" x="72" y="-1741.8" font-family="Helvetica,sans-Serif" font-size="14.00">Q8</text>
</g>
<!-- V9 -->
<g id="node9" class="node"><title>V9</title>
<polygon fill="none" stroke="black" points="144,-1926 0,-1926 0,-1890 144,-1890 144,-1926"/>
<text text-anchor="middle" x="72" y="-1903.8" font-family="Helvetica,sans-Serif" font-size="14.00">Q9</text>
</g>
<!-- V10 -->
<g id="node10" class="node"><title>V10</title>
<polygon fill="none" stroke="black" points="144,-792 0,-792 0,-756 144,-756 144,-792"/>
<text text-anchor="middle" x="72" y="-769.8" font-family="Helvetica,sans-Serif" font-size="14.00">Q10</text>
</g>
<!-- V11 -->
<g id="node11" class="node"><title>V11</title>
<polygon fill="none" stroke="black" points="144,-1494 0,-1494 0,-1458 144,-1458 144,-1494"/>
<text text-anchor="middle" x="72" y="-1471.8" font-family="Helvetica,sans-Serif" font-size="14.00">Q11</text>
</g>
<!-- V12 -->
<g id="node12" class="node"><title>V12</title>
<polygon fill="none" stroke="black" points="144,-36 0,-36 0,-0 144,-0 144,-36"/>
<text text-anchor="middle" x="72" y="-13.8" font-family="Helvetica,sans-Serif" font-size="14.00">Q12</text>
</g>
<!-- V13 -->
<g id="node13" class="node"><title>V13</title>
<polygon fill="none" stroke="black" points="144,-360 0,-360 0,-324 144,-324 144,-360"/>
<text text-anchor="middle" x="72" y="-337.8" font-family="Helvetica,sans-Serif" font-size="14.00">Q13</text>
</g>
<!-- V14 -->
<g id="node14" class="node"><title>V14</title>
<polygon fill="none" stroke="black" points="144,-1440 0,-1440 0,-1404 144,-1404 144,-1440"/>
<text text-anchor="middle" x="72" y="-1417.8" font-family="Helvetica,sans-Serif" font-size="14.00">Q14</text>
</g>
<!-- V15 -->
<g id="node15" class="node"><title>V15</title>
<polygon fill="none" stroke="black" points="144,-414 0,-414 0,-378 144,-378 144,-414"/>
<text text-anchor="middle" x="72" y="-391.8" font-family="Helvetica,sans-Serif" font-size="14.00">Q15</text>
</g>
<!-- V16 -->
<g id="node16" class="node"><title>V16</title>
<polygon fill="none" stroke="black" points="144,-1224 0,-1224 0,-1188 144,-1188 144,-1224"/>
<text text-anchor="middle" x="72" y="-1201.8" font-family="Helvetica,sans-Serif" font-size="14.00">Q16</text>
</g>
<!-- V17 -->
<g id="node17" class="node"><title>V17</title>
<polygon fill="none" stroke="black" points="144,-1116 0,-1116 0,-1080 144,-1080 144,-1116"/>
<text text-anchor="middle" x="72" y="-1093.8" font-family="Helvetica,sans-Serif" font-size="14.00">Q17</text>
</g>
<!-- V18 -->
<g id="node18" class="node"><title>V18</title>
<polygon fill="none" stroke="black" points="144,-1710 0,-1710 0,-1674 144,-1674 144,-1710"/>
<text text-anchor="middle" x="72" y="-1687.8" font-family="Helvetica,sans-Serif" font-size="14.00">Q18</text>
</g>
<!-- V19 -->
<g id="node19" class="node"><title>V19</title>
<polygon fill="none" stroke="black" points="144,-1872 0,-1872 0,-1836 144,-1836 144,-1872"/>
<text text-anchor="middle" x="72" y="-1849.8" font-family="Helvetica,sans-Serif" font-size="14.00">Q19</text>
</g>
<!-- V20 -->
<g id="node20" class="node"><title>V20</title>
<polygon fill="none" stroke="black" points="144,-1386 0,-1386 0,-1350 144,-1350 144,-1386"/>
<text text-anchor="middle" x="72" y="-1363.8" font-family="Helvetica,sans-Serif" font-size="14.00">Q20</text>
</g>
<!-- V21 -->
<g id="node21" class="node"><title>V21</title>
<polygon fill="none" stroke="black" points="144,-306 0,-306 0,-270 144,-270 144,-306"/>
<text text-anchor="middle" x="72" y="-283.8" font-family="Helvetica,sans-Serif" font-size="14.00">Q21</text>
</g>
<!-- V22 -->
<g id="node22" class="node"><title>V22</title>
<polygon fill="none" stroke="black" points="144,-252 0,-252 0,-216 144,-216 144,-252"/>
<text text-anchor="middle" x="72" y="-229.8" font-family="Helvetica,sans-Serif" font-size="14.00">Q22</text>
</g>
<!-- V23 -->
<g id="node23" class="node"><title>V23</title>
<polygon fill="none" stroke="black" points="144,-738 0,-738 0,-702 144,-702 144,-738"/>
<text text-anchor="middle" x="72" y="-715.8" font-family="Helvetica,sans-Serif" font-size="14.00">Q23</text>
</g>
<!-- V24 -->
<g id="node24" class="node"><title>V24</title>
<polygon fill="none" stroke="black" points="144,-684 0,-684 0,-648 144,-648 144,-684"/>
<text text-anchor="middle" x="72" y="-661.8" font-family="Helvetica,sans-Serif" font-size="14.00">Q24</text>
</g>
<!-- V25 -->
<g id="node25" class="node"><title>V25</title>
<polygon fill="none" stroke="black" points="144,-1170 0,-1170 0,-1134 144,-1134 144,-1170"/>
<text text-anchor="middle" x="72" y="-1147.8" font-family="Helvetica,sans-Serif" font-size="14.00">Q25</text>
</g>
<!-- V26 -->
<g id="node26" class="node"><title>V26</title>
<polygon fill="none" stroke="black" points="144,-1062 0,-1062 0,-1026 144,-1026 144,-1062"/>
<text text-anchor="middle" x="72" y="-1039.8" font-family="Helvetica,sans-Serif" font-size="14.00">Q26</text>
</g>
<!-- V27 -->
<g id="node27" class="node"><title>V27</title>
<polygon fill="none" stroke="black" points="144,-1008 0,-1008 0,-972 144,-972 144,-1008"/>
<text text-anchor="middle" x="72" y="-985.8" font-family="Helvetica,sans-Serif" font-size="14.00">Q27</text>
</g>
<!-- V28 -->
<g id="node28" class="node"><title>V28</title>
<polygon fill="none" stroke="black" points="144,-1656 0,-1656 0,-1620 144,-1620 144,-1656"/>
<text text-anchor="middle" x="72" y="-1633.8" font-family="Helvetica,sans-Serif" font-size="14.00">Q28</text>
</g>
<!-- V29 -->
<g id="node29" class="node"><title>V29</title>
<polygon fill="none" stroke="black" points="144,-1332 0,-1332 0,-1296 144,-1296 144,-1332"/>
<text text-anchor="middle" x="72" y="-1309.8" font-family="Helvetica,sans-Serif" font-size="14.00">Q29</text>
</g>
<!-- V30 -->
<g id="node30" class="node"><title>V30</title>
<polygon fill="none" stroke="black" points="144,-954 0,-954 0,-918 144,-918 144,-954"/>
<text text-anchor="middle" x="72" y="-931.8" font-family="Helvetica,sans-Serif" font-size="14.00">Q30</text>
</g>
<!-- V31 -->
<g id="node31" class="node"><title>V31</title>
<polygon fill="none" stroke="black" points="144,-198 0,-198 0,-162 144,-162 144,-198"/>
<text text-anchor="middle" x="72" y="-175.8" font-family="Helvetica,sans-Serif" font-size="14.00">Q31</text>
</g>
<!-- V32 -->
<g id="node32" class="node"><title>V32</title>
<polygon fill="none" stroke="black" points="144,-630 0,-630 0,-594 144,-594 144,-630"/>
<text text-anchor="middle" x="72" y="-607.8" font-family="Helvetica,sans-Serif" font-size="14.00">Q32</text>
</g>
<!-- V33 -->
<g id="node33" class="node"><title>V33</title>
<polygon fill="none" stroke="black" points="144,-576 0,-576 0,-540 144,-540 144,-576"/>
<text text-anchor="middle" x="72" y="-553.8" font-family="Helvetica,sans-Serif" font-size="14.00">Q33</text>
</g>
<!-- V34 -->
<g id="node34" class="node"><title>V34</title>
<polygon fill="none" stroke="black" points="144,-1602 0,-1602 0,-1566 144,-1566 144,-1602"/>
<text text-anchor="middle" x="72" y="-1579.8" font-family="Helvetica,sans-Serif" font-size="14.00">Q34</text>
</g>
<!-- V35 -->
<g id="node35" class="node"><title>V35</title>
<polygon fill="none" stroke="black" points="144,-1818 0,-1818 0,-1782 144,-1782 144,-1818"/>
<text text-anchor="middle" x="72" y="-1795.8" font-family="Helvetica,sans-Serif" font-size="14.00">Q35</text>
</g>
<!-- V36 -->
<g id="node36" class="node"><title>V36</title>
<polygon fill="none" stroke="black" points="144,-900 0,-900 0,-864 144,-864 144,-900"/>
<text text-anchor="middle" x="72" y="-877.8" font-family="Helvetica,sans-Serif" font-size="14.00">Q36</text>
</g>
<!-- WLS2 -->
<g id="node37" class="node"><title>WLS2</title>
<ellipse fill="none" stroke="black" cx="236.785" cy="-207" rx="37.1578" ry="18"/>
<text text-anchor="middle" x="236.785" y="-202.8" font-family="Helvetica,sans-Serif" font-size="14.00">WLS2</text>
</g>
<!-- WLS2&#45;&gt;V3 -->
<g id="edge1" class="edge"><title>WLS2&#45;&gt;V3</title>
<path fill="none" stroke="black" d="M213.731,-192.6C195.49,-181.04 168.667,-164.842 144,-153 140.489,-151.314 136.844,-149.659 133.141,-148.048"/>
<polygon fill="black" stroke="black" points="134.439,-144.797 123.864,-144.146 131.725,-151.249 134.439,-144.797"/>
<text text-anchor="middle" x="171.728" y="-176" font-family="Helvetica,sans-Serif" font-size="10.00">0.56</text>
</g>
<!-- WLS2&#45;&gt;V6 -->
<g id="edge2" class="edge"><title>WLS2&#45;&gt;V6</title>
<path fill="none" stroke="black" d="M225.121,-189.671C209.834,-166.135 179.576,-124.125 144,-99 142.118,-97.6711 140.163,-96.3978 138.152,-95.1787"/>
<polygon fill="black" stroke="black" points="139.494,-91.9224 129.044,-90.1768 136.124,-98.0581 139.494,-91.9224"/>
<text text-anchor="middle" x="171.728" y="-136" font-family="Helvetica,sans-Serif" font-size="10.00">0.48</text>
</g>
<!-- WLS2&#45;&gt;V12 -->
<g id="edge3" class="edge"><title>WLS2&#45;&gt;V12</title>
<path fill="none" stroke="black" d="M230.631,-189.196C220.05,-155.827 192.684,-83.7556 144,-45 142.414,-43.7372 140.762,-42.5287 139.058,-41.3725"/>
<polygon fill="black" stroke="black" points="140.541,-38.1798 130.169,-36.0185 136.929,-44.1762 140.541,-38.1798"/>
<text text-anchor="middle" x="171.728" y="-89" font-family="Helvetica,sans-Serif" font-size="10.00">0.74</text>
</g>
<!-- WLS2&#45;&gt;V13 -->
<g id="edge4" class="edge"><title>WLS2&#45;&gt;V13</title>
<path fill="none" stroke="black" d="M225.121,-224.329C209.834,-247.865 179.576,-289.875 144,-315 142.118,-316.329 140.163,-317.602 138.152,-318.821"/>
<polygon fill="black" stroke="black" points="136.124,-315.942 129.044,-323.823 139.494,-322.078 136.124,-315.942"/>
<text text-anchor="middle" x="171.728" y="-301" font-family="Helvetica,sans-Serif" font-size="10.00">0.76</text>
</g>
<!-- WLS2&#45;&gt;V21 -->
<g id="edge5" class="edge"><title>WLS2&#45;&gt;V21</title>
<path fill="none" stroke="black" d="M213.731,-221.4C195.49,-232.96 168.667,-249.158 144,-261 140.489,-262.686 136.844,-264.341 133.141,-265.952"/>
<polygon fill="black" stroke="black" points="131.725,-262.751 123.864,-269.854 134.439,-269.203 131.725,-262.751"/>
<text text-anchor="middle" x="171.728" y="-255" font-family="Helvetica,sans-Serif" font-size="10.00">0.6</text>
</g>
<!-- WLS2&#45;&gt;V22 -->
<g id="edge6" class="edge"><title>WLS2&#45;&gt;V22</title>
<path fill="none" stroke="black" d="M201.262,-212.726C187.505,-215.008 171.038,-217.739 154.562,-220.472"/>
<polygon fill="black" stroke="black" points="153.618,-217.08 144.326,-222.17 154.764,-223.986 153.618,-217.08"/>
<text text-anchor="middle" x="171.728" y="-222" font-family="Helvetica,sans-Serif" font-size="10.00">0.82</text>
</g>
<!-- WLS2&#45;&gt;V31 -->
<g id="edge7" class="edge"><title>WLS2&#45;&gt;V31</title>
<path fill="none" stroke="black" d="M201.262,-201.274C187.505,-198.992 171.038,-196.261 154.562,-193.528"/>
<polygon fill="black" stroke="black" points="154.764,-190.014 144.326,-191.83 153.618,-196.92 154.764,-190.014"/>
<text text-anchor="middle" x="171.728" y="-201" font-family="Helvetica,sans-Serif" font-size="10.00">0.36</text>
</g>
<!-- WLS1 -->
<g id="node38" class="node"><title>WLS1</title>
<ellipse fill="none" stroke="black" cx="236.785" cy="-666" rx="37.1578" ry="18"/>
<text text-anchor="middle" x="236.785" y="-661.8" font-family="Helvetica,sans-Serif" font-size="14.00">WLS1</text>
</g>
<!-- WLS1&#45;&gt;V4 -->
<g id="edge8" class="edge"><title>WLS1&#45;&gt;V4</title>
<path fill="none" stroke="black" d="M228.327,-648.442C215.315,-619.826 185.806,-563.111 144,-531 142.392,-529.765 140.721,-528.581 139.001,-527.446"/>
<polygon fill="black" stroke="black" points="140.44,-524.232 130.046,-522.175 136.889,-530.264 140.44,-524.232"/>
<text text-anchor="middle" x="171.728" y="-572" font-family="Helvetica,sans-Serif" font-size="10.00">0.48</text>
</g>
<!-- WLS1&#45;&gt;V5 -->
<g id="edge9" class="edge"><title>WLS1&#45;&gt;V5</title>
<path fill="none" stroke="black" d="M232.426,-647.931C224.389,-609.997 200.364,-521.869 144,-477 142.414,-475.737 140.762,-474.529 139.058,-473.372"/>
<polygon fill="black" stroke="black" points="140.541,-470.18 130.169,-468.018 136.929,-476.176 140.541,-470.18"/>
<text text-anchor="middle" x="171.728" y="-518" font-family="Helvetica,sans-Serif" font-size="10.00">0.66</text>
</g>
<!-- WLS1&#45;&gt;V15 -->
<g id="edge10" class="edge"><title>WLS1&#45;&gt;V15</title>
<path fill="none" stroke="black" d="M234.864,-647.835C231.49,-601.996 215.862,-481.159 144,-423 142.462,-421.756 140.861,-420.564 139.209,-419.424"/>
<polygon fill="black" stroke="black" points="140.94,-416.38 130.584,-414.141 137.283,-422.349 140.94,-416.38"/>
<text text-anchor="middle" x="171.728" y="-468" font-family="Helvetica,sans-Serif" font-size="10.00">0.34</text>
</g>
<!-- WLS1&#45;&gt;V23 -->
<g id="edge11" class="edge"><title>WLS1&#45;&gt;V23</title>
<path fill="none" stroke="black" d="M205.547,-676.03C186.314,-682.411 160.672,-690.917 137.069,-698.747"/>
<polygon fill="black" stroke="black" points="135.84,-695.467 127.451,-701.937 138.044,-702.111 135.84,-695.467"/>
<text text-anchor="middle" x="171.728" y="-693" font-family="Helvetica,sans-Serif" font-size="10.00">0.91</text>
</g>
<!-- WLS1&#45;&gt;V24 -->
<g id="edge12" class="edge"><title>WLS1&#45;&gt;V24</title>
<path fill="none" stroke="black" d="M199.252,-666C185.873,-666 170.141,-666 154.408,-666"/>
<polygon fill="black" stroke="black" points="154.094,-662.5 144.094,-666 154.094,-669.5 154.094,-662.5"/>
<text text-anchor="middle" x="171.728" y="-669" font-family="Helvetica,sans-Serif" font-size="10.00">0.56</text>
</g>
<!-- WLS1&#45;&gt;V32 -->
<g id="edge13" class="edge"><title>WLS1&#45;&gt;V32</title>
<path fill="none" stroke="black" d="M205.547,-655.97C186.314,-649.589 160.672,-641.083 137.069,-633.253"/>
<polygon fill="black" stroke="black" points="138.044,-629.889 127.451,-630.063 135.84,-636.533 138.044,-629.889"/>
<text text-anchor="middle" x="171.728" y="-650" font-family="Helvetica,sans-Serif" font-size="10.00">0.55</text>
</g>
<!-- WLS1&#45;&gt;V33 -->
<g id="edge14" class="edge"><title>WLS1&#45;&gt;V33</title>
<path fill="none" stroke="black" d="M220.616,-649.443C203.471,-631.536 174.019,-603.126 144,-585 141.375,-583.415 138.642,-581.895 135.841,-580.442"/>
<polygon fill="black" stroke="black" points="137.242,-577.232 126.716,-576.028 134.194,-583.534 137.242,-577.232"/>
<text text-anchor="middle" x="171.728" y="-614" font-family="Helvetica,sans-Serif" font-size="10.00">0.54</text>
</g>
<!-- WLS1&#45;&gt;WLS2 -->
<g id="edge37" class="edge"><title>WLS1&#45;&gt;WLS2</title>
<path fill="none" stroke="black" d="M236.785,-637.553C236.785,-555.244 236.785,-317.497 236.785,-235.332"/>
<polygon fill="black" stroke="black" points="233.285,-637.671 236.785,-647.671 240.285,-637.671 233.285,-637.671"/>
<polygon fill="black" stroke="black" points="240.285,-235.277 236.785,-225.277 233.285,-235.277 240.285,-235.277"/>
<text text-anchor="middle" x="245.785" y="-433.5" font-family="Helvetica,sans-Serif" font-size="10.00">0.31</text>
</g>
<!-- WLS8 -->
<g id="node39" class="node"><title>WLS8</title>
<ellipse fill="none" stroke="black" cx="236.785" cy="-882" rx="37.1578" ry="18"/>
<text text-anchor="middle" x="236.785" y="-877.8" font-family="Helvetica,sans-Serif" font-size="14.00">WLS8</text>
</g>
<!-- WLS8&#45;&gt;V1 -->
<g id="edge15" class="edge"><title>WLS8&#45;&gt;V1</title>
<path fill="none" stroke="black" d="M205.547,-871.97C186.314,-865.589 160.672,-857.083 137.069,-849.253"/>
<polygon fill="black" stroke="black" points="138.044,-845.889 127.451,-846.063 135.84,-852.533 138.044,-845.889"/>
<text text-anchor="middle" x="171.728" y="-866" font-family="Helvetica,sans-Serif" font-size="10.00">0.33</text>
</g>
<!-- WLS8&#45;&gt;V10 -->
<g id="edge16" class="edge"><title>WLS8&#45;&gt;V10</title>
<path fill="none" stroke="black" d="M220.616,-865.443C203.471,-847.536 174.019,-819.126 144,-801 141.375,-799.415 138.642,-797.895 135.841,-796.442"/>
<polygon fill="black" stroke="black" points="137.242,-793.232 126.716,-792.028 134.194,-799.534 137.242,-793.232"/>
<text text-anchor="middle" x="171.728" y="-830" font-family="Helvetica,sans-Serif" font-size="10.00">0.68</text>
</g>
<!-- WLS8&#45;&gt;V30 -->
<g id="edge17" class="edge"><title>WLS8&#45;&gt;V30</title>
<path fill="none" stroke="black" d="M205.547,-892.03C186.314,-898.411 160.672,-906.917 137.069,-914.747"/>
<polygon fill="black" stroke="black" points="135.84,-911.467 127.451,-917.937 138.044,-918.111 135.84,-911.467"/>
<text text-anchor="middle" x="171.728" y="-909" font-family="Helvetica,sans-Serif" font-size="10.00">0.66</text>
</g>
<!-- WLS8&#45;&gt;V36 -->
<g id="edge18" class="edge"><title>WLS8&#45;&gt;V36</title>
<path fill="none" stroke="black" d="M199.252,-882C185.873,-882 170.141,-882 154.408,-882"/>
<polygon fill="black" stroke="black" points="154.094,-878.5 144.094,-882 154.094,-885.5 154.094,-878.5"/>
<text text-anchor="middle" x="171.728" y="-885" font-family="Helvetica,sans-Serif" font-size="10.00">0.65</text>
</g>
<!-- WLS8&#45;&gt;WLS1 -->
<g id="edge38" class="edge"><title>WLS8&#45;&gt;WLS1</title>
<path fill="none" stroke="black" d="M236.785,-853.647C236.785,-812.238 236.785,-735.662 236.785,-694.29"/>
<polygon fill="black" stroke="black" points="233.285,-853.855 236.785,-863.855 240.285,-853.855 233.285,-853.855"/>
<polygon fill="black" stroke="black" points="240.285,-694.044 236.785,-684.045 233.285,-694.045 240.285,-694.044"/>
<text text-anchor="middle" x="245.785" y="-771" font-family="Helvetica,sans-Serif" font-size="10.00">0.47</text>
</g>
<!-- WLS4 -->
<g id="node40" class="node"><title>WLS4</title>
<ellipse fill="none" stroke="black" cx="236.785" cy="-1665" rx="37.1578" ry="18"/>
<text text-anchor="middle" x="236.785" y="-1660.8" font-family="Helvetica,sans-Serif" font-size="14.00">WLS4</text>
</g>
<!-- WLS4&#45;&gt;V8 -->
<g id="edge19" class="edge"><title>WLS4&#45;&gt;V8</title>
<path fill="none" stroke="black" d="M213.731,-1679.4C195.49,-1690.96 168.667,-1707.16 144,-1719 140.489,-1720.69 136.844,-1722.34 133.141,-1723.95"/>
<polygon fill="black" stroke="black" points="131.725,-1720.75 123.864,-1727.85 134.439,-1727.2 131.725,-1720.75"/>
<text text-anchor="middle" x="171.728" y="-1713" font-family="Helvetica,sans-Serif" font-size="10.00">0.69</text>
</g>
<!-- WLS4&#45;&gt;V18 -->
<g id="edge20" class="edge"><title>WLS4&#45;&gt;V18</title>
<path fill="none" stroke="black" d="M201.262,-1670.73C187.505,-1673.01 171.038,-1675.74 154.562,-1678.47"/>
<polygon fill="black" stroke="black" points="153.618,-1675.08 144.326,-1680.17 154.764,-1681.99 153.618,-1675.08"/>
<text text-anchor="middle" x="171.728" y="-1680" font-family="Helvetica,sans-Serif" font-size="10.00">0.69</text>
</g>
<!-- WLS4&#45;&gt;V28 -->
<g id="edge21" class="edge"><title>WLS4&#45;&gt;V28</title>
<path fill="none" stroke="black" d="M201.262,-1659.27C187.505,-1656.99 171.038,-1654.26 154.562,-1651.53"/>
<polygon fill="black" stroke="black" points="154.764,-1648.01 144.326,-1649.83 153.618,-1654.92 154.764,-1648.01"/>
<text text-anchor="middle" x="171.728" y="-1659" font-family="Helvetica,sans-Serif" font-size="10.00">0.71</text>
</g>
<!-- WLS4&#45;&gt;V34 -->
<g id="edge22" class="edge"><title>WLS4&#45;&gt;V34</title>
<path fill="none" stroke="black" d="M213.731,-1650.6C195.49,-1639.04 168.667,-1622.84 144,-1611 140.489,-1609.31 136.844,-1607.66 133.141,-1606.05"/>
<polygon fill="black" stroke="black" points="134.439,-1602.8 123.864,-1602.15 131.725,-1609.25 134.439,-1602.8"/>
<text text-anchor="middle" x="171.728" y="-1634" font-family="Helvetica,sans-Serif" font-size="10.00">0.65</text>
</g>
<!-- WLS3 -->
<g id="node41" class="node"><title>WLS3</title>
<ellipse fill="none" stroke="black" cx="236.785" cy="-1854" rx="37.1578" ry="18"/>
<text text-anchor="middle" x="236.785" y="-1849.8" font-family="Helvetica,sans-Serif" font-size="14.00">WLS3</text>
</g>
<!-- WLS3&#45;&gt;V9 -->
<g id="edge23" class="edge"><title>WLS3&#45;&gt;V9</title>
<path fill="none" stroke="black" d="M205.547,-1864.03C186.314,-1870.41 160.672,-1878.92 137.069,-1886.75"/>
<polygon fill="black" stroke="black" points="135.84,-1883.47 127.451,-1889.94 138.044,-1890.11 135.84,-1883.47"/>
<text text-anchor="middle" x="171.728" y="-1880" font-family="Helvetica,sans-Serif" font-size="10.00">0.71</text>
</g>
<!-- WLS3&#45;&gt;V19 -->
<g id="edge24" class="edge"><title>WLS3&#45;&gt;V19</title>
<path fill="none" stroke="black" d="M199.252,-1854C185.873,-1854 170.141,-1854 154.408,-1854"/>
<polygon fill="black" stroke="black" points="154.094,-1850.5 144.094,-1854 154.094,-1857.5 154.094,-1850.5"/>
<text text-anchor="middle" x="171.728" y="-1857" font-family="Helvetica,sans-Serif" font-size="10.00">0.63</text>
</g>
<!-- WLS3&#45;&gt;V35 -->
<g id="edge25" class="edge"><title>WLS3&#45;&gt;V35</title>
<path fill="none" stroke="black" d="M205.547,-1843.97C186.314,-1837.59 160.672,-1829.08 137.069,-1821.25"/>
<polygon fill="black" stroke="black" points="138.044,-1817.89 127.451,-1818.06 135.84,-1824.53 138.044,-1817.89"/>
<text text-anchor="middle" x="171.728" y="-1838" font-family="Helvetica,sans-Serif" font-size="10.00">0.64</text>
</g>
<!-- WLS5 -->
<g id="node42" class="node"><title>WLS5</title>
<ellipse fill="none" stroke="black" cx="236.785" cy="-1037" rx="37.1578" ry="18"/>
<text text-anchor="middle" x="236.785" y="-1032.8" font-family="Helvetica,sans-Serif" font-size="14.00">WLS5</text>
</g>
<!-- WLS5&#45;&gt;V7 -->
<g id="edge26" class="edge"><title>WLS5&#45;&gt;V7</title>
<path fill="none" stroke="black" d="M232.919,-1054.97C225.687,-1094.05 202.891,-1186.93 144,-1233 142.403,-1234.25 140.742,-1235.45 139.03,-1236.59"/>
<polygon fill="black" stroke="black" points="136.909,-1233.78 130.109,-1241.91 140.491,-1239.8 136.909,-1233.78"/>
<text text-anchor="middle" x="171.728" y="-1217" font-family="Helvetica,sans-Serif" font-size="10.00">0.54</text>
</g>
<!-- WLS5&#45;&gt;V16 -->
<g id="edge27" class="edge"><title>WLS5&#45;&gt;V16</title>
<path fill="none" stroke="black" d="M229.804,-1054.92C218.456,-1085.9 190.668,-1149 144,-1179 141.688,-1180.49 139.281,-1181.91 136.812,-1183.27"/>
<polygon fill="black" stroke="black" points="134.977,-1180.28 127.645,-1187.92 138.146,-1186.52 134.977,-1180.28"/>
<text text-anchor="middle" x="171.728" y="-1166" font-family="Helvetica,sans-Serif" font-size="10.00">0.89</text>
</g>
<!-- WLS5&#45;&gt;V25 -->
<g id="edge28" class="edge"><title>WLS5&#45;&gt;V25</title>
<path fill="none" stroke="black" d="M227.408,-1054.71C218.347,-1072.09 202.348,-1098.23 181.456,-1114 173.07,-1120.33 163.543,-1125.67 153.701,-1130.15"/>
<polygon fill="black" stroke="black" points="152.031,-1127.05 144.195,-1134.18 154.768,-1133.5 152.031,-1127.05"/>
<text text-anchor="middle" x="171.728" y="-1129" font-family="Helvetica,sans-Serif" font-size="10.00">0.51</text>
</g>
<!-- WLS5&#45;&gt;WLS1 -->
<g id="edge39" class="edge"><title>WLS5&#45;&gt;WLS1</title>
<path fill="none" stroke="black" d="M266.977,-1015.84C269.432,-1013.92 271.84,-1011.96 274.113,-1010 287.322,-998.63 294.978,-998.135 301.569,-982 303.586,-977.063 302.128,-975.304 301.569,-970 290.675,-866.609 259.487,-746.664 244.72,-693.636"/>
<polygon fill="black" stroke="black" points="264.453,-1013.36 258.579,-1022.18 268.67,-1018.95 264.453,-1013.36"/>
<polygon fill="black" stroke="black" points="248.072,-692.627 241.996,-683.948 241.333,-694.522 248.072,-692.627"/>
<text text-anchor="middle" x="301.841" y="-973" font-family="Helvetica,sans-Serif" font-size="10.00">0.36</text>
</g>
<!-- WLS5&#45;&gt;WLS8 -->
<g id="edge40" class="edge"><title>WLS5&#45;&gt;WLS8</title>
<path fill="none" stroke="black" d="M268.792,-1016.1C270.728,-1014.17 272.53,-1012.14 274.113,-1010 307.045,-965.547 308.961,-930.564 301.569,-918 296.081,-908.671 287.204,-901.586 277.759,-896.278"/>
<polygon fill="black" stroke="black" points="266.116,-1013.79 260.83,-1022.97 270.688,-1019.09 266.116,-1013.79"/>
<polygon fill="black" stroke="black" points="279.132,-893.051 268.621,-891.717 276.006,-899.314 279.132,-893.051"/>
<text text-anchor="middle" x="301.841" y="-921" font-family="Helvetica,sans-Serif" font-size="10.00">0.33</text>
</g>
<!-- WLS6 -->
<g id="node43" class="node"><title>WLS6</title>
<ellipse fill="none" stroke="black" cx="236.785" cy="-1422" rx="37.1578" ry="18"/>
<text text-anchor="middle" x="236.785" y="-1417.8" font-family="Helvetica,sans-Serif" font-size="14.00">WLS6</text>
</g>
<!-- WLS6&#45;&gt;V2 -->
<g id="edge29" class="edge"><title>WLS6&#45;&gt;V2</title>
<path fill="none" stroke="black" d="M220.616,-1438.56C203.471,-1456.46 174.019,-1484.87 144,-1503 141.375,-1504.58 138.642,-1506.1 135.841,-1507.56"/>
<polygon fill="black" stroke="black" points="134.194,-1504.47 126.716,-1511.97 137.242,-1510.77 134.194,-1504.47"/>
<text text-anchor="middle" x="171.728" y="-1493" font-family="Helvetica,sans-Serif" font-size="10.00">0.59</text>
</g>
<!-- WLS6&#45;&gt;V11 -->
<g id="edge30" class="edge"><title>WLS6&#45;&gt;V11</title>
<path fill="none" stroke="black" d="M205.547,-1432.03C186.314,-1438.41 160.672,-1446.92 137.069,-1454.75"/>
<polygon fill="black" stroke="black" points="135.84,-1451.47 127.451,-1457.94 138.044,-1458.11 135.84,-1451.47"/>
<text text-anchor="middle" x="171.728" y="-1449" font-family="Helvetica,sans-Serif" font-size="10.00">0.44</text>
</g>
<!-- WLS6&#45;&gt;V14 -->
<g id="edge31" class="edge"><title>WLS6&#45;&gt;V14</title>
<path fill="none" stroke="black" d="M199.252,-1422C185.873,-1422 170.141,-1422 154.408,-1422"/>
<polygon fill="black" stroke="black" points="154.094,-1418.5 144.094,-1422 154.094,-1425.5 154.094,-1418.5"/>
<text text-anchor="middle" x="171.728" y="-1425" font-family="Helvetica,sans-Serif" font-size="10.00">0.34</text>
</g>
<!-- WLS6&#45;&gt;V20 -->
<g id="edge32" class="edge"><title>WLS6&#45;&gt;V20</title>
<path fill="none" stroke="black" d="M205.547,-1411.97C186.314,-1405.59 160.672,-1397.08 137.069,-1389.25"/>
<polygon fill="black" stroke="black" points="138.044,-1385.89 127.451,-1386.06 135.84,-1392.53 138.044,-1385.89"/>
<text text-anchor="middle" x="171.728" y="-1406" font-family="Helvetica,sans-Serif" font-size="10.00">0.66</text>
</g>
<!-- WLS6&#45;&gt;V29 -->
<g id="edge33" class="edge"><title>WLS6&#45;&gt;V29</title>
<path fill="none" stroke="black" d="M220.616,-1405.44C203.471,-1387.54 174.019,-1359.13 144,-1341 141.375,-1339.42 138.642,-1337.9 135.841,-1336.44"/>
<polygon fill="black" stroke="black" points="137.242,-1333.23 126.716,-1332.03 134.194,-1339.53 137.242,-1333.23"/>
<text text-anchor="middle" x="171.728" y="-1370" font-family="Helvetica,sans-Serif" font-size="10.00">0.62</text>
</g>
<!-- WLS7 -->
<g id="node44" class="node"><title>WLS7</title>
<ellipse fill="none" stroke="black" cx="236.785" cy="-983" rx="37.1578" ry="18"/>
<text text-anchor="middle" x="236.785" y="-978.8" font-family="Helvetica,sans-Serif" font-size="14.00">WLS7</text>
</g>
<!-- WLS7&#45;&gt;V17 -->
<g id="edge34" class="edge"><title>WLS7&#45;&gt;V17</title>
<path fill="none" stroke="black" d="M214.488,-997.753C209.41,-1001.56 204.115,-1005.78 199.456,-1010 172.301,-1034.6 174.278,-1050.37 144,-1071 141.902,-1072.43 139.718,-1073.8 137.473,-1075.1"/>
<polygon fill="black" stroke="black" points="135.749,-1072.06 128.564,-1079.84 139.036,-1078.24 135.749,-1072.06"/>
<text text-anchor="middle" x="171.728" y="-1059" font-family="Helvetica,sans-Serif" font-size="10.00">0.81</text>
</g>
<!-- WLS7&#45;&gt;V26 -->
<g id="edge35" class="edge"><title>WLS7&#45;&gt;V26</title>
<path fill="none" stroke="black" d="M206.682,-993.906C185.679,-1001.78 156.621,-1012.66 130.96,-1022.28"/>
<polygon fill="black" stroke="black" points="129.452,-1019.11 121.316,-1025.89 131.908,-1025.66 129.452,-1019.11"/>
<text text-anchor="middle" x="171.728" y="-1013" font-family="Helvetica,sans-Serif" font-size="10.00">0.46</text>
</g>
<!-- WLS7&#45;&gt;V27 -->
<g id="edge36" class="edge"><title>WLS7&#45;&gt;V27</title>
<path fill="none" stroke="black" d="M199.252,-984.571C185.873,-985.146 170.141,-985.823 154.408,-986.499"/>
<polygon fill="black" stroke="black" points="153.935,-983.016 144.094,-986.943 154.236,-990.01 153.935,-983.016"/>
<text text-anchor="middle" x="171.728" y="-990" font-family="Helvetica,sans-Serif" font-size="10.00">0.37</text>
</g>
<!-- WLS7&#45;&gt;WLS1 -->
<g id="edge41" class="edge"><title>WLS7&#45;&gt;WLS1</title>
<path fill="none" stroke="black" d="M277.759,-968.722C287.204,-963.414 296.081,-956.329 301.569,-947 304.273,-942.403 302.198,-940.296 301.569,-935 290.911,-845.23 260.913,-742.075 245.769,-693.726"/>
<polygon fill="black" stroke="black" points="276.006,-965.686 268.621,-973.283 279.132,-971.949 276.006,-965.686"/>
<polygon fill="black" stroke="black" points="249.044,-692.473 242.689,-683.996 242.37,-694.586 249.044,-692.473"/>
<text text-anchor="middle" x="301.841" y="-938" font-family="Helvetica,sans-Serif" font-size="10.00">0.33</text>
</g>
<!-- WLS7&#45;&gt;WLS8 -->
<g id="edge42" class="edge"><title>WLS7&#45;&gt;WLS8</title>
<path fill="none" stroke="black" d="M236.785,-954.361C236.785,-940.542 236.785,-924.016 236.785,-910.249"/>
<polygon fill="black" stroke="black" points="233.285,-954.759 236.785,-964.759 240.285,-954.759 233.285,-954.759"/>
<polygon fill="black" stroke="black" points="240.285,-910.057 236.785,-900.057 233.285,-910.057 240.285,-910.057"/>
<text text-anchor="middle" x="245.785" y="-929.5" font-family="Helvetica,sans-Serif" font-size="10.00">0.35</text>
</g>
</g>
</svg>

